<svg id="Layer_1" xmlns="http://www.w3.org/2000/svg" viewBox="0 0 119.3 160"><style>.st0{fill:transparent}</style><path class="st0" d="M0-335.7h595.3v839.6H0z"/><path d="M41.5 122.3v14.6c-.1 4.3-1 8.2-2.6 11.5-1.3 2.9-3.3 5.6-6.2 7.8-2.9 2.3-6.8 3.6-12 3.6s-9.2-1.3-12.1-3.6c-2.9-2.2-4.8-4.9-6.1-7.8-1.6-3.3-2.5-7.2-2.6-11.5v-114c.1-4.2 1-8.1 2.6-11.4 1.3-2.9 3.2-5.8 6.1-7.9 2.9-2.2 7-3.6 12.2-3.6 5.2 0 9.1 1.4 12 3.6 2.9 2.2 4.9 5 6.2 7.9 1.6 3.3 2.5 7.2 2.6 11.4v14.6H27V22.9c0-2.9-.7-4.9-2.3-6.6-.7-.7-2-1.2-3.6-1.2-2.7 0-4 2-4.8 3.9-.4 1.2-.6 2.5-.7 3.9v113.9c.1 3 1 5 2.5 6.6.7.7 1.7 1.2 3 1.2 3.3 0 4.6-1.7 5.3-3.9.4-1 .6-2.3.6-3.9v-14.6h14.5zM103.6 1.2h15.6v157.5h-15.6zm-55.9 0h14l16.6 90.7.9.1V1.2h14.5v157.3h-14L62.8 67.8h-.9l.2 90.8H47.7z"/></svg>